<svg xmlns="http://www.w3.org/2000/svg" fill="none" font-family="Inter, ui-sans-serif, system-ui, -apple-system, BlinkMacSystemFont, Segoe UI, sans-serif" viewBox="0 0 1200 1000"><defs><linearGradient id="g-tile" x1="0" x2="1" y1="0" y2="1"><stop offset="0%" stop-color="#ec4899"/><stop offset="100%" stop-color="#db2777"/></linearGradient><linearGradient id="g-loop" x1="0" x2="1" y1="0" y2="0"><stop offset="0%" stop-color="#fff"/><stop offset="100%" stop-color="#fce7f3"/></linearGradient><linearGradient id="g-word" x1="0" x2="1" y1="0" y2="0"><stop offset="0%" stop-color="#f472b6"/><stop offset="100%" stop-color="#db2777"/></linearGradient><linearGradient id="g-mesh" x1="0" x2="1" y1="0" y2="0"><stop offset="0%" stop-color="#007cf0"/><stop offset="25%" stop-color="#00dfd8"/><stop offset="45%" stop-color="#7928ca"/><stop offset="65%" stop-color="#ff0080"/><stop offset="85%" stop-color="#ff4d4d"/><stop offset="100%" stop-color="#f9cb28"/></linearGradient><radialGradient id="g-atmo" cx="50%" cy="40%" r="80%"><stop offset="0%" stop-color="#18181b"/><stop offset="60%" stop-color="#0f0f12"/><stop offset="100%" stop-color="#050508"/></radialGradient><filter id="g-glow" width="200%" height="200%" x="-50%" y="-50%"><feGaussianBlur result="blur" stdDeviation="1.5"/><feComposite in="SourceGraphic" in2="blur" operator="over"/></filter><clipPath id="c-card"><rect width="1200" height="1000" rx="0"/></clipPath><symbol id="mark" viewBox="0 0 64 64"><rect width="52" height="52" x="6" y="6" fill="url(#g-tile)" rx="14"/><path fill="none" stroke="url(#g-loop)" stroke-linecap="round" stroke-width="5.5" d="M14 32 C14 18 28 18 32 32 C36 46 50 46 50 32" opacity=".96"/><circle cx="32" cy="32" r="4.6" fill="#ff0080" filter="url(#g-glow)"/><circle cx="32" cy="32" r="2.4" fill="#fff"/></symbol></defs><g clip-path="url(#c-card)"><rect width="1200" height="1000" fill="#0f0f12"/><line x1="48" x2="1152" y1="48" y2="48" stroke="#27272a" stroke-width="1"/><text x="48" y="36" fill="#71717a" font-size="12" letter-spacing="3">AXONROUTER — BRAND SYSTEM</text><text x="1152" y="36" fill="#71717a" font-size="12" letter-spacing="2" text-anchor="end">v2 / 2026</text><rect width="368" height="300" x="48" y="88" fill="#18181b" rx="18"/><use width="96" height="96" x="184" y="132" href="#mark"/><text x="232" y="280" fill="#fafafa" font-size="30" font-weight="700" letter-spacing="-.8" text-anchor="middle">Axon<tspan fill="url(#g-word)">Router</tspan></text><text x="232" y="310" fill="#6b6b76" font-size="11" letter-spacing="3" text-anchor="middle">UNIVERSAL API PROXY</text><rect width="368" height="300" x="444" y="88" fill="#18181b" rx="18"/><g transform="translate(444,88)"><circle cx="184" cy="150" r="78" fill="none" stroke="#27272a" stroke-width="1"/><circle cx="184" cy="150" r="52" fill="none" stroke="#27272a" stroke-width="1"/><line x1="106" x2="262" y1="150" y2="150" stroke="#27272a" stroke-width="1"/><line x1="184" x2="184" y1="72" y2="228" stroke="#27272a" stroke-width="1"/><use width="96" height="96" x="136" y="102" href="#mark"/><circle cx="184" cy="150" r="4" fill="#ff0080" opacity=".5"/><text x="184" y="270" fill="#6b6b76" font-size="11" letter-spacing="3" text-anchor="middle">CONSTRUCTION — 14PX GRID</text></g><rect width="368" height="300" x="840" y="88" fill="#18181b" rx="18"/><g transform="translate(840,108)"><rect width="328" height="220" x="20" y="16" fill="#0c0c10" rx="12"/><circle cx="42" cy="38" r="5" fill="#3a3a44"/><circle cx="62" cy="38" r="5" fill="#3a3a44"/><circle cx="82" cy="38" r="5" fill="#3a3a44"/><text x="40" y="82" fill="#a1a1aa" font-family="Geist Mono, ui-monospace, Menlo, monospace" font-size="13">$ curl -fsSL axon.sh | bash</text><text x="40" y="110" fill="#6b6b76" font-family="Geist Mono, ui-monospace, Menlo, monospace" font-size="13">==&gt; linux/amd64 detected</text><text x="40" y="138" fill="#6b6b76" font-family="Geist Mono, ui-monospace, Menlo, monospace" font-size="13">==&gt; installed /usr/local/bin/axonrouter</text><rect width="96" height="22" x="40" y="158" fill="#ec489925" rx="6"/><text x="48" y="173" fill="#ec4899" font-family="Geist Mono, ui-monospace, Menlo, monospace" font-size="11" font-weight="600">ready :3777</text><text x="184" y="268" fill="#6b6b76" font-size="11" letter-spacing="3" text-anchor="middle">DASHBOARD · TERMINAL</text></g><rect width="368" height="300" x="48" y="408" fill="#18181b" rx="18"/><text x="74" y="502" fill="#fafafa" font-size="38" font-weight="600" letter-spacing="-1.2">Route</text><text x="74" y="550" fill="#fafafa" font-size="38" font-weight="600" letter-spacing="-1.2">every model.</text><text x="74" y="598" fill="url(#g-word)" font-size="38" font-weight="600" letter-spacing="-1.2">Never stop.</text><text x="74" y="650" fill="#6b6b76" font-family="Geist Mono, ui-monospace, Menlo, monospace" font-size="12" letter-spacing="2">ONE PORT · ALL FORMATS · ALWAYS ON</text><rect width="368" height="300" x="444" y="408" fill="#18181b" rx="18"/><g transform="translate(444,408)"><rect width="78" height="78" x="20" y="30" fill="#ec4899" rx="14"/><rect width="78" height="78" x="124" y="30" fill="#db2777" rx="14"/><rect width="78" height="78" x="228" y="30" fill="#ff0080" rx="14"/><rect width="78" height="78" x="20" y="124" fill="#0f0f12" stroke="#27272a" stroke-width="1" rx="14"/><rect width="78" height="78" x="124" y="124" fill="#18181b" stroke="#27272a" stroke-width="1" rx="14"/><rect width="78" height="78" x="228" y="124" fill="#1e1e22" stroke="#27272a" stroke-width="1" rx="14"/><rect width="328" height="44" x="20" y="226" fill="url(#g-mesh)" rx="10"/><text x="184" y="268" fill="#6b6b76" font-size="11" letter-spacing="3" text-anchor="middle">PRIMARY · NEUTRALS · MESH</text></g><rect width="368" height="300" x="840" y="408" fill="#18181b" rx="18"/><text x="864" y="470" fill="#6b6b76" font-size="12" letter-spacing="2">PRIMARY — SANS</text><text x="864" y="532" fill="#fafafa" font-size="44" font-weight="600" letter-spacing="-1.5">AxonRouter</text><text x="864" y="586" fill="#6b6b76" font-size="12" letter-spacing="2">SECONDARY — MONO</text><text x="864" y="626" fill="#a1a1aa" font-family="Geist Mono, ui-monospace, Menlo, monospace" font-size="22">openai/ claude/ cx/</text><rect width="368" height="244" x="48" y="728" fill="#18181b" rx="18"/><g transform="translate(48,728)"><rect width="248" height="92" x="60" y="50" fill="#1e1e22" stroke="#27272a" stroke-width="1" rx="14"/><use width="56" height="56" x="84" y="68" href="#mark"/><text x="156" y="100" fill="#fafafa" font-size="18" font-weight="700">v2.0.0</text><text x="156" y="120" fill="#6b6b76" font-size="11" letter-spacing="2">RELEASE TAG</text><rect width="108" height="34" x="130" y="162" fill="url(#g-tile)" rx="17"/><text x="184" y="184" fill="#fafafa" font-size="13" font-weight="700" text-anchor="middle">axonrouter</text></g><rect width="368" height="244" x="444" y="728" fill="#18181b" rx="18"/><g transform="translate(444,728)"><rect width="368" height="244" fill="url(#g-atmo)" rx="18"/><path fill="none" stroke="#db2777" stroke-width="1.5" d="M0 180 C 80 100 160 260 240 180 S 368 130 368 190" opacity=".35"/><path fill="none" stroke="#ec4899" stroke-width="1.5" d="M0 150 C 80 80 160 210 240 150 S 368 100 368 150" opacity=".25"/><rect width="368" height="80" x="0" y="120" fill="url(#g-mesh)" opacity=".15"/><circle cx="290" cy="92" r="5" fill="#ff0080" filter="url(#g-glow)"/><text x="24" y="222" fill="#6b6b76" font-size="11" letter-spacing="3">ATMOSPHERE — ROUTED SIGNAL</text></g><rect width="368" height="244" x="840" y="728" fill="#18181b" rx="18"/><g transform="translate(840,728)"><use width="56" height="56" x="24" y="46" href="#mark"/><rect width="56" height="56" x="104" y="46" fill="#1e1e22" stroke="#27272a" stroke-width="1" rx="14"/><rect width="56" height="56" x="184" y="46" fill="#1e1e22" stroke="#27272a" stroke-width="1" rx="14"/><rect width="56" height="56" x="264" y="46" fill="#1e1e22" stroke="#27272a" stroke-width="1" rx="14"/><path fill="none" stroke="#ec4899" stroke-linecap="round" stroke-width="2.5" d="M116 74 C116 60 128 60 132 74 C136 88 148 88 148 74" opacity=".45"/><circle cx="198" cy="74" r="3" fill="#ff0080"/><path fill="none" stroke="#f472b6" stroke-linecap="round" stroke-linejoin="round" stroke-width="2.5" d="M284 62 L296 74 L284 86" opacity=".7"/><text x="24" y="138" fill="#9aa0aa" font-size="11" letter-spacing="3">ICON · TILE · LOOP · PULSE</text><rect width="320" height="42" x="24" y="162" fill="#0c0c10" rx="10"/><text x="40" y="188" fill="#a1a1aa" font-family="Geist Mono, ui-monospace, Menlo, monospace" font-size="13">openai · claude · cx · kiro · ag · cf</text></g><line x1="48" x2="1152" y1="988" y2="988" stroke="#27272a" stroke-width="1"/><text x="48" y="978" fill="#4a4a54" font-size="11" letter-spacing="2">AXONROUTER-GO</text><text x="1152" y="978" fill="#4a4a54" font-size="11" letter-spacing="2" text-anchor="end">© 2026</text></g></svg>