<svg xmlns="http://www.w3.org/2000/svg" fill="none" viewBox="0 0 64 64"><path fill="#F38020" d="M44.5 35.2h-25c-1.1 0-2-.9-2-2s.9-2 2-2h25c1.1 0 2 .9 2 2s-.9 2-2 2z"/><path fill="#F38020" d="M52.2 39.5H11.8c-1.1 0-2-.9-2-2s.9-2 2-2h40.4c1.1 0 2 .9 2 2s-.9 2-2 2z"/><path fill="#F38020" d="M48.8 43.8H15.2c-1.1 0-2-.9-2-2s.9-2 2-2h33.6c1.1 0 2 .9 2 2s-.9 2-2 2z"/><path fill="#F38020" d="M32 8C18.7 8 8 18.7 8 32s10.7 24 24 24 24-10.7 24-24S45.3 8 32 8zm0 44c-11 0-20-9-20-20s9-20 20-20 20 9 20 20-9 20-20 20z" opacity=".3"/></svg>